<svg xmlns="http://www.w3.org/2000/svg" viewBox="0 0 920 700" role="img" aria-labelledby="title desc"><title id="title">高精圖資與自駕載具整合</title><desc id="desc">展示場域量測、點雲圖資、車端定位、路徑執行與場域驗收。</desc><defs><pattern id="grid" width="28" height="28" patternUnits="userSpaceOnUse"><path d="M28 0H0V28" fill="none" stroke="#dfdbd3"/></pattern><marker id="arr" markerWidth="10" markerHeight="10" refX="8" refY="3" orient="auto"><path d="M0 0L0 6L9 3z" fill="#111"/></marker></defs><rect width="920" height="700" fill="#f1efe9"/><rect width="920" height="700" fill="url(#grid)"/><g font-family="Arial,sans-serif"><text x="42" y="46" font-size="12" letter-spacing="2.4" fill="#6d6961">GIS / LIDAR / HD MAP / VEHICLE INTEGRATION</text><g transform="translate(42 76)"><rect width="836" height="390" rx="16" fill="#ded9d0" stroke="#aaa59b"/><path d="M60 310C140 255 202 282 272 220S420 133 516 172S675 290 776 212" fill="none" stroke="#111" stroke-width="56" stroke-linecap="round"/><path d="M60 310C140 255 202 282 272 220S420 133 516 172S675 290 776 212" fill="none" stroke="#f1efe9" stroke-width="4" stroke-dasharray="15 16"/><g fill="#b7ff2a" stroke="#111" stroke-width="2"><circle cx="85" cy="296" r="10"/><circle cx="226" cy="255" r="10"/><circle cx="382" cy="159" r="10"/><circle cx="563" cy="194" r="10"/><circle cx="744" cy="233" r="10"/></g><g transform="translate(342 218)"><rect width="92" height="48" rx="8" fill="#111"/><rect x="14" y="-12" width="64" height="22" rx="6" fill="#111"/><circle cx="20" cy="50" r="10" fill="#b7ff2a"/><circle cx="72" cy="50" r="10" fill="#b7ff2a"/><path d="M46 -12V-54" stroke="#111" stroke-width="4"/><circle cx="46" cy="-60" r="9" fill="#c5523d"/></g><g fill="#111" opacity=".55"><circle cx="112" cy="94" r="3"/><circle cx="127" cy="107" r="2"/><circle cx="142" cy="84" r="4"/><circle cx="154" cy="120" r="2"/><circle cx="173" cy="97" r="3"/><circle cx="198" cy="112" r="2"/><circle cx="627" cy="78" r="3"/><circle cx="646" cy="101" r="2"/><circle cx="671" cy="89" r="4"/><circle cx="690" cy="118" r="3"/><circle cx="714" cy="96" r="2"/></g><text x="24" y="354" font-size="10" fill="#6d6961">FIELD / POINT CLOUD / HD MAP / LOCALIZATION / PATH EXECUTION / ACCEPTANCE</text></g><g transform="translate(42 500)"><g><rect width="146" height="132" rx="12" fill="#111"/><text x="18" y="29" font-size="9" fill="#aaa" letter-spacing="1">01</text><text x="18" y="61" font-size="17" font-weight="800" fill="#fff">場域量測</text><text x="18" y="88" font-size="10" fill="#aaa">LiDAR / GNSS / survey</text></g><path d="M152 66H176" stroke="#111" stroke-width="2" marker-end="url(#arr)"/><g transform="translate(182)"><rect width="146" height="132" rx="12" fill="#fff" stroke="#bcb7ad"/><text x="18" y="29" font-size="9" fill="#6d6961" letter-spacing="1">02</text><text x="18" y="61" font-size="17" font-weight="800">圖資製作</text><text x="18" y="88" font-size="10" fill="#6d6961">Point cloud / HD map</text></g><path d="M334 66H358" stroke="#111" stroke-width="2" marker-end="url(#arr)"/><g transform="translate(364)"><rect width="146" height="132" rx="12" fill="#b7ff2a"/><text x="18" y="29" font-size="9" fill="#48610d" letter-spacing="1">03</text><text x="18" y="61" font-size="17" font-weight="800">車端整合</text><text x="18" y="88" font-size="10" fill="#3d510c">Interface / localization</text></g><path d="M516 66H540" stroke="#111" stroke-width="2" marker-end="url(#arr)"/><g transform="translate(546)"><rect width="146" height="132" rx="12" fill="#fff" stroke="#bcb7ad"/><text x="18" y="29" font-size="9" fill="#6d6961" letter-spacing="1">04</text><text x="18" y="61" font-size="17" font-weight="800">路徑執行</text><text x="18" y="88" font-size="10" fill="#6d6961">Scenario / issue loop</text></g><path d="M698 66H722" stroke="#111" stroke-width="2" marker-end="url(#arr)"/><g transform="translate(728)"><rect width="108" height="132" rx="12" fill="#111"/><text x="18" y="29" font-size="9" fill="#aaa" letter-spacing="1">05</text><text x="18" y="61" font-size="17" font-weight="800" fill="#fff">驗收</text><text x="18" y="88" font-size="10" fill="#aaa">Evidence / KPI</text></g></g></g></svg>